<svg width="568" height="160" viewBox="0 0 568 160" fill="none" xmlns="http://www.w3.org/2000/svg">
<g clip-path="url(#clip0_12626_39624)">
<path d="M90.3961 40.326L83.7329 33.0693C82.1923 32.2267 80.5938 31.4949 78.9494 30.8796C74.5005 29.1655 69.773 28.2899 65.0057 28.2969H21.5195L28.3932 109.932H50.024V106.1H65.0057C70.1134 106.1 75.171 105.093 79.8897 103.137C84.6083 101.181 88.8956 98.3137 92.5066 94.6992C96.1176 91.0847 98.9816 86.7938 100.935 82.0715C102.888 77.3493 103.893 72.2883 103.891 67.1775V67.0091C103.813 59.1517 100.813 51.6052 95.4741 45.8423L90.3961 40.326Z" fill="#52A1FF"/>
<path d="M94.0558 56.8306C94.0576 61.9425 93.0527 67.0047 91.0985 71.7278C89.1443 76.451 86.2791 80.7425 82.6666 84.3572C79.0541 87.9719 74.7652 90.8388 70.0449 92.7942C65.3246 94.7496 60.2655 95.7551 55.1567 95.7533H40.189V109.902H11.7266V17.9219H55.2128C62.0283 17.913 68.7254 19.7045 74.6273 23.1153L83.7594 33.0531L85.3726 34.8216C90.8974 40.754 94.0048 48.5396 94.0838 56.6481L94.0558 56.8306Z" fill="#1F7AFF"/>
<path d="M82.3292 46.6977C82.3329 57.0121 78.2435 66.9059 70.9599 74.2045C63.6762 81.5031 53.7943 85.6093 43.4862 85.6205H28.4484V109.903H0V7.78906H43.4862C49.4176 7.79155 55.2695 9.15419 60.5926 11.7723C65.9156 14.3904 70.5682 18.1944 74.1931 22.8921C79.472 29.7246 82.3338 38.1177 82.3292 46.7539V46.6977Z" fill="#2C1DFF"/>
<path d="M127.512 6.58594H163.647C189.108 6.58594 203.585 17.815 203.585 39.9643V40.5538C203.585 62.661 188.224 73.2023 164.377 73.2023H151.064V111.255H127.512V6.58594ZM163.058 56.6535C174.617 56.6535 180.761 51.039 180.761 40.6942V40.1187C180.761 28.9879 174.323 24.5945 163.058 24.5945H151.064V56.6535H163.058Z" fill="black"/>
<path d="M210.305 73.777V72.612C210.305 48.6098 227.727 32.9453 250.691 32.9453C273.654 32.9453 290.923 48.3853 290.923 72.247V73.412C290.923 97.5685 273.514 112.938 250.55 112.938C227.587 112.938 210.305 97.6387 210.305 73.777ZM269.418 73.4962V72.4716C269.418 57.8317 262.544 49.045 250.691 49.045C238.837 49.045 231.964 57.551 231.964 72.1768V73.3418C231.964 87.9817 238.697 96.7685 250.691 96.7685C262.685 96.7685 269.418 87.9817 269.418 73.4962Z" fill="black"/>
<path d="M300.434 73.777V72.612C300.434 48.6098 317.842 32.9453 340.806 32.9453C363.769 32.9453 381.037 48.3853 381.037 72.247V73.412C381.037 97.5685 363.629 112.938 340.665 112.938C317.702 112.938 300.434 97.6387 300.434 73.777ZM359.533 73.4962V72.4716C359.533 57.8317 352.659 49.045 340.806 49.045C328.952 49.045 322.079 57.551 322.079 72.1768V73.3418C322.079 87.9817 328.812 96.7685 340.806 96.7685C352.799 96.7685 359.533 87.9817 359.533 73.4962Z" fill="black"/>
<path d="M395.809 0H416.85V111.252H395.809V0Z" fill="black"/>
<path d="M431.508 73.9314V72.7523C431.508 48.6098 448.622 32.9453 470.87 32.9453C490.621 32.9453 508.17 44.5112 508.17 71.8821V77.7352H453.012C453.602 90.4662 460.475 97.7931 472.034 97.7931C481.854 97.7931 486.665 93.5822 487.984 87.0974H508.03C505.533 103.646 492.374 112.868 471.445 112.868C448.327 112.868 431.508 98.3826 431.508 73.9314ZM487.549 64.7095C486.805 53.1436 480.956 47.5852 470.87 47.5852C461.359 47.5852 454.92 53.8735 453.307 64.7095H487.549Z" fill="black"/>
<path d="M522.059 34.6947H543.283V49.3346C548.108 39.088 555.571 33.67 568 33.5156V53.3349C552.345 53.1945 543.283 58.3178 543.283 72.9858V111.249H522.059V34.6947Z" fill="black"/>
<path d="M386.031 135.883H391.811C395.374 135.883 397.983 137.076 397.983 140.866V140.964C398.046 141.872 397.79 142.774 397.26 143.515C396.73 144.255 395.959 144.788 395.079 145.02C397.885 145.694 398.923 147.126 398.923 149.624V149.737C398.923 153.358 396.454 155.113 392.61 155.113H386.031V135.883ZM391.811 144.305C394.616 144.305 395.696 143.28 395.696 140.922V140.81C395.696 138.634 394.434 137.75 391.755 137.75H388.318V144.305H391.811ZM392.554 153.302C395.36 153.302 396.636 152.067 396.636 149.737V149.624C396.636 147.266 395.332 146.129 392.232 146.129H388.318V153.302H392.554Z" fill="black"/>
<path d="M406.372 153.656L400.859 141.023H403.258L407.551 151.102L411.45 141.023H413.737L405.965 160.015H403.707L406.372 153.656Z" fill="black"/>
<path d="M422.434 135.883H424.832L428.718 151.323L433.235 135.883H434.862L439.365 151.449L443.321 135.883H445.495L440.501 155.113H438.355L433.992 139.925L429.518 155.113H427.427L422.434 135.883Z" fill="black"/>
<path d="M446.59 148.195V147.984C446.59 146.152 447.317 144.396 448.611 143.101C449.906 141.806 451.661 141.078 453.492 141.078C455.322 141.078 457.077 141.806 458.372 143.101C459.666 144.396 460.393 146.152 460.393 147.984V148.209C460.393 150.04 459.666 151.797 458.372 153.092C457.077 154.387 455.322 155.114 453.492 155.114C451.661 155.114 449.906 154.387 448.611 153.092C447.317 151.797 446.59 150.04 446.59 148.209V148.195ZM458.093 148.195V148.012C458.093 144.756 456.283 142.664 453.492 142.664C450.7 142.664 448.904 144.756 448.904 147.984V148.195C448.904 151.395 450.644 153.5 453.492 153.5C456.339 153.5 458.093 151.367 458.093 148.195Z" fill="black"/>
<path d="M462.82 148.195V147.984C462.82 147.077 462.999 146.179 463.346 145.341C463.693 144.503 464.201 143.742 464.842 143.101C465.483 142.46 466.243 141.951 467.081 141.604C467.918 141.257 468.816 141.078 469.722 141.078C470.628 141.078 471.526 141.257 472.363 141.604C473.2 141.951 473.961 142.46 474.602 143.101C475.243 143.742 475.751 144.503 476.098 145.341C476.445 146.179 476.624 147.077 476.624 147.984V148.209C476.624 149.115 476.445 150.013 476.098 150.851C475.751 151.689 475.243 152.45 474.602 153.092C473.961 153.733 473.2 154.242 472.363 154.589C471.526 154.936 470.628 155.114 469.722 155.114C468.816 155.114 467.918 154.936 467.081 154.589C466.243 154.242 465.483 153.733 464.842 153.092C464.201 152.45 463.693 151.689 463.346 150.851C462.999 150.013 462.82 149.115 462.82 148.209V148.195ZM474.309 148.195V148.012C474.309 144.756 472.514 142.664 469.722 142.664C466.93 142.664 465.121 144.756 465.121 147.984V148.195C465.121 151.395 466.874 153.5 469.722 153.5C472.57 153.5 474.309 151.367 474.309 148.195Z" fill="black"/>
<path d="M479.051 148.364V148.154C479.051 143.845 481.73 140.813 485.602 140.813C486.522 140.767 487.437 140.976 488.247 141.416C489.056 141.857 489.728 142.513 490.189 143.311V134.328H492.377V155.116H490.147V152.688C489.621 153.489 488.908 154.151 488.07 154.616C487.232 155.08 486.293 155.334 485.335 155.355C481.702 155.355 479.051 152.744 479.051 148.364ZM490.273 148.182V147.957C490.273 144.364 488.548 142.666 485.812 142.666C483.077 142.666 481.351 144.631 481.351 148.042V148.252C481.351 151.803 483.259 153.502 485.63 153.502C488.169 153.502 490.273 151.775 490.273 148.182Z" fill="black"/>
<path d="M495.882 148.224V148.013C495.832 147.085 495.972 146.157 496.293 145.285C496.614 144.413 497.109 143.616 497.749 142.942C498.388 142.268 499.158 141.732 500.012 141.365C500.865 140.999 501.784 140.811 502.713 140.813C505.645 140.813 508.324 142.216 508.815 145.725H506.613C506.501 144.802 506.027 143.962 505.296 143.388C504.564 142.814 503.636 142.554 502.713 142.665C500.16 142.665 498.196 144.715 498.196 148.013V148.224C498.196 151.677 500.076 153.501 502.797 153.501C503.783 153.564 504.755 153.24 505.507 152.598C506.258 151.956 506.73 151.047 506.823 150.062H508.885C508.739 151.561 508.023 152.947 506.885 153.932C505.746 154.917 504.273 155.426 502.769 155.354C501.836 155.384 500.908 155.217 500.043 154.866C499.178 154.515 498.396 153.987 497.747 153.315C497.099 152.644 496.597 151.844 496.276 150.967C495.955 150.09 495.82 149.156 495.882 148.224Z" fill="black"/>
<path d="M511.203 148.195V147.984C511.203 147.077 511.382 146.179 511.728 145.341C512.075 144.503 512.584 143.742 513.225 143.101C513.865 142.46 514.626 141.951 515.464 141.604C516.301 141.257 517.198 141.078 518.105 141.078C519.011 141.078 519.909 141.257 520.746 141.604C521.583 141.951 522.344 142.46 522.985 143.101C523.626 143.742 524.134 144.503 524.481 145.341C524.828 146.179 525.006 147.077 525.006 147.984V148.209C525.006 149.115 524.828 150.013 524.481 150.851C524.134 151.689 523.626 152.45 522.985 153.092C522.344 153.733 521.583 154.242 520.746 154.589C519.909 154.936 519.011 155.114 518.105 155.114C517.198 155.114 516.301 154.936 515.464 154.589C514.626 154.242 513.865 153.733 513.225 153.092C512.584 152.45 512.075 151.689 511.728 150.851C511.382 150.013 511.203 149.115 511.203 148.209V148.195ZM522.706 148.195V148.012C522.706 144.756 520.896 142.664 518.105 142.664C515.313 142.664 513.518 144.756 513.518 147.984V148.195C513.518 151.395 515.257 153.5 518.105 153.5C520.952 153.5 522.706 151.367 522.706 148.195Z" fill="black"/>
<path d="M528.484 141.05H530.715V143.576C531.124 142.707 531.78 141.978 532.601 141.478C533.421 140.979 534.37 140.733 535.33 140.769V142.861C532.524 143.001 530.715 143.885 530.715 147.352V155.072H528.484V141.05Z" fill="black"/>
<path d="M537.124 148.224V148.013C537.124 143.802 539.846 140.812 543.704 140.812C546.958 140.812 550.016 142.778 550.016 147.831V148.547H539.439C539.551 151.747 541.08 153.529 543.956 153.529C546.13 153.529 547.393 152.715 547.687 151.073H549.89C549.399 153.88 547.084 155.382 543.9 155.382C542.97 155.409 542.045 155.239 541.186 154.884C540.326 154.529 539.551 153.996 538.911 153.32C538.272 152.644 537.782 151.841 537.474 150.963C537.166 150.084 537.047 149.151 537.124 148.224ZM547.744 146.722C547.519 143.816 546.018 142.665 543.704 142.665C542.614 142.665 541.566 143.087 540.781 143.844C539.996 144.6 539.535 145.632 539.495 146.722H547.744Z" fill="black"/>
</g>
<defs>
<clipPath id="clip0_12626_39624">
<rect width="568" height="160" fill="white"/>
</clipPath>
</defs>
</svg>
